<?xml version="1.0" encoding="UTF-8" standalone="no"?>
<svg
   xmlns:dc="http://purl.org/dc/elements/1.1/"
   xmlns:cc="http://creativecommons.org/ns#"
   xmlns:rdf="http://www.w3.org/1999/02/22-rdf-syntax-ns#"
   xmlns:svg="http://www.w3.org/2000/svg"
   xmlns="http://www.w3.org/2000/svg"
   xmlns:xlink="http://www.w3.org/1999/xlink"
   height="61.168205"
   width="113.04311"
   version="1.1"
   viewBox="0 0 113.04311 61.168206"
   id="svg27183">
  <defs
     id="defs4142">
    <linearGradient
       id="linearGradient4177">
      <stop
         id="stop4179"
         offset="0"
         style="stop-color:#ffd42a;stop-opacity:1;" />
      <stop
         id="stop4181"
         offset="1"
         style="stop-color:#caa100;stop-opacity:0.98823529" />
    </linearGradient>
    <linearGradient
       gradientTransform="matrix(0.83944623,0,0,0.84253451,11.257577,143.6335)"
       gradientUnits="userSpaceOnUse"
       y2="936.76874"
       x2="96.840073"
       y1="943.91162"
       x1="71.842514"
       id="linearGradient4183"
       xlink:href="#linearGradient4177" />
    <linearGradient
       gradientTransform="matrix(-0.83944624,0,0,0.84253453,212.06787,141.84778)"
       y2="936.76874"
       x2="96.840073"
       y1="943.91162"
       x1="71.842514"
       gradientUnits="userSpaceOnUse"
       id="linearGradient4187"
       xlink:href="#linearGradient4177" />
  </defs>
  <g
     transform="translate(-248.61473,32.106745)"
     id="layer2">
    <rect
       rx="11.111678"
       ry="11.111679"
       y="-93.373543"
       x="-184.42462"
       height="341.35721"
       width="586.89862"
       id="rect4292"
       style="opacity:1;fill:#afe9c6;fill-opacity:1;stroke:none;stroke-width:0.80000001;stroke-linecap:round;stroke-linejoin:round;stroke-miterlimit:4;stroke-dasharray:none;stroke-dashoffset:0;stroke-opacity:1" />
  </g>
  <g
     transform="translate(-264.5759,-763.18253)"
     id="layer1">
    <rect
       rx="11.111678"
       ry="11.111679"
       y="738.30969"
       x="-158.29015"
       height="280.31729"
       width="153.54318"
       id="rect4814"
       style="opacity:1;fill:#217844;fill-opacity:0.71065991;stroke:none;stroke-width:0.80000001;stroke-linecap:round;stroke-linejoin:round;stroke-miterlimit:4;stroke-dasharray:none;stroke-dashoffset:0;stroke-opacity:1" />
    <rect
       style="opacity:1;fill:#217844;fill-opacity:0.69543146;stroke:none;stroke-width:0.80000001;stroke-linecap:round;stroke-linejoin:round;stroke-miterlimit:4;stroke-dasharray:none;stroke-dashoffset:0;stroke-opacity:1"
       id="rect4816"
       width="132.22229"
       height="82.920631"
       x="-151.85225"
       y="748.08557"
       ry="11.111678"
       rx="11.111678" />
    <rect
       rx="11.111678"
       ry="11.111678"
       y="836.979"
       x="-149.32689"
       height="82.920631"
       width="132.22229"
       id="rect4818"
       style="opacity:1;fill:#217844;fill-opacity:0.69543146;stroke:none;stroke-width:0.80000001;stroke-linecap:round;stroke-linejoin:round;stroke-miterlimit:4;stroke-dasharray:none;stroke-dashoffset:0;stroke-opacity:1" />
    <rect
       style="opacity:1;fill:#217844;fill-opacity:0.69543146;stroke:none;stroke-width:0.80000001;stroke-linecap:round;stroke-linejoin:round;stroke-miterlimit:4;stroke-dasharray:none;stroke-dashoffset:0;stroke-opacity:1"
       id="rect4820"
       width="132.22229"
       height="82.920631"
       x="-146.29643"
       y="926.88257"
       ry="11.111678"
       rx="11.111678" />
    <g
       id="brain">
      <path
         style="fill:#b3b3b3;fill-rule:evenodd;stroke:none;stroke-width:1px;stroke-linecap:butt;stroke-linejoin:miter;stroke-opacity:1"
         d="m 116.47135,988.58723 c 30.80965,1.85676 74.2462,9.01683 74.2462,17.92927 0,8.9124 -52.52793,11.6899 -63.13453,9.9221 -7.97127,-1.3285 -24.74873,-4.1151 -32.324874,-1.1443 -7.576144,2.9708 -39.143411,3.6091 -49.750011,-1.1887 -8.636652,-3.9066 -22.854701,-11.6855 -13.131983,-18.83402 9.722718,-7.14853 53.285545,-8.54111 84.095198,-6.68435 z"
         id="path4269" />
      <path
         id="path4271"
         d="m 113.2759,990.69572 c 26.47674,1.44731 62.10409,8.05239 62.5419,14.98568 0.75761,11.9977 -43.87798,8.1018 -52.99292,6.7238 -6.85023,-1.0355 -21.2682,-3.2076 -27.778884,-0.8919 -6.510668,2.3156 -33.638477,2.8132 -42.75342,-0.9266 -7.422037,-3.0451 -19.640534,-9.1085 -11.285168,-14.68067 8.355364,-5.57212 45.791741,-6.65761 72.268492,-5.21031 z"
         style="fill:#7e7e7e;fill-opacity:1;fill-rule:evenodd;stroke:none;stroke-width:1px;stroke-linecap:butt;stroke-linejoin:miter;stroke-opacity:1" />
      <path
         style="fill:#f2f2f2;fill-rule:evenodd;stroke:#000000;stroke-width:1px;stroke-linecap:butt;stroke-linejoin:miter;stroke-opacity:1"
         d="m 44.245444,989.86575 -4.040611,1.76777 c 0,0 -2.020305,2.27285 -0.252538,4.54569 1.767767,2.27285 15.404827,9.84899 18.940361,10.60659 3.535533,0.7576 45.709404,-9.3439 47.477174,-12.37436 1.76776,-3.03046 1.51522,-3.78807 0,-4.79822 -1.51523,-1.01016 -2.52539,-1.26269 -2.52539,-1.26269 z"
         id="path4237" />
      <path
         id="path4185"
         d="m 151.30058,902.96475 c -10.19327,-0.3009 -20.98616,0 -23.08477,-0.3009 -2.09862,-0.30091 8.69427,21.66517 -2.99802,65.29642 -0.66986,2.49965 15.61427,5.28534 16.48912,2.40724 10.79287,-35.5068 9.59367,-67.40276 9.59367,-67.40276 z"
         style="fill:url(#linearGradient4187);fill-opacity:1;fill-rule:evenodd;stroke:#000000;stroke-width:0.99999994px;stroke-linecap:butt;stroke-linejoin:miter;stroke-opacity:1" />
      <path
         style="fill:url(#linearGradient4183);fill-opacity:1;fill-rule:evenodd;stroke:#000000;stroke-width:1px;stroke-linecap:butt;stroke-linejoin:miter;stroke-opacity:1"
         d="m 72.024874,904.75046 c 10.193272,-0.3009 20.986158,0 23.084772,-0.3009 2.098611,-0.3009 -8.694269,21.66518 2.998011,65.29642 0.66986,2.49965 -15.614265,5.28534 -16.489111,2.40724 -10.792881,-35.5068 -9.593672,-67.40276 -9.593672,-67.40276 z"
         id="path4173" />
      <g
         id="g4146"
         transform="matrix(0.47376226,0,0,0.47376226,25.7751,379.88559)">
        <ellipse
           ry="140.71428"
           rx="192.85713"
           cy="1023.0743"
           cx="181.42857"
           id="path4144"
           style="opacity:1;fill:#c83737;fill-opacity:1;stroke:none;stroke-width:1.60000002;stroke-linecap:round;stroke-linejoin:round;stroke-miterlimit:4;stroke-dasharray:none;stroke-dashoffset:0;stroke-opacity:1" />
        <path
           d="m 216.35572,1174.0815 c 7.2601,-1.1236 11.218,-2.256 16.154,-4.6217 9.1519,-4.3863 16.009,-13.25 16.53,-21.367 0.2148,-3.3484 0.044,-4.2591 -1.8359,-9.7829 -2.0296,-5.9638 -5.834,-14.708 -10.029,-23.052 -1.1568,-2.3007 -2.0042,-4.2822 -1.883,-4.4034 0.3519,-0.3519 3.9707,3.9648 7.4248,8.8567 4.6407,6.5725 8.0077,13.174 10.47,20.526 l 2.1703,6.4813 3.7484,1.5605 c 7.3774,3.0712 12.47,4.0772 21.85,4.3163 7.9129,0.2017 8.8658,0.1261 13.516,-1.0721 8.9471,-2.3052 15.674,-6.1969 21.818,-12.622 4.3665,-4.5662 6.2462,-7.4172 8.8582,-13.436 2.9211,-6.7304 4.2977,-8.9885 7.6013,-12.468 3.6076,-3.8001 7.1901,-6.3174 15.809,-11.109 14.924,-8.2963 19.842,-12.728 23.793,-21.443 2.7556,-6.0773 3.2287,-8.7817 3.2084,-18.343 -0.021,-9.833 -0.7614,-14.292 -3.9766,-23.943 -2.8148,-8.4496 -8.0169,-18.384 -11.652,-22.252 -1.4682,-1.5622 -3.7427,-1.8301 -5.4406,-0.6408 -1.6455,1.1526 -3.9139,5.0304 -6.6032,11.288 -5.7935,13.481 -17.312,38.263 -16.872,36.299 0.1234,-0.5508 1.5749,-6.8605 3.2254,-14.021 3.6764,-15.95 4.2627,-20.194 3.9085,-28.293 -0.5654,-12.925 -4.0515,-23.17704 -12.96,-38.11304 -6.0257,-10.103 -10.859,-15.088 -17.694,-18.249 -5.7294,-2.6499 -10.77,-3.8282 -16.721,-3.9087 l -5.2541,-0.071 -0.653,2.2298 c -0.3591,1.2263 -1.0186,4.7192 -1.4654,7.7618 -1.1647,7.9302 -0.7689,13.799 1.5383,22.808 2.2886,8.93684 2.6986,13.30504 1.6029,17.07504 -0.7405,2.5473 -3.8825,7.0545 -4.5005,6.456 -0.1451,-0.1406 0.091,-2.1687 0.5255,-4.5069 1.1179,-6.0212 0.9383,-8.0858 -1.611,-18.52304 -1.2445,-5.0953 -2.3977,-11.067 -2.5626,-13.27 -0.4882,-6.5204 0.8249,-15.603 4.3795,-30.29 1.7085,-7.0598 1.6488,-9.0596 -0.4002,-13.4 -2.318,-4.9103 -9.0135,-10.809 -16.584,-14.611 -9.6854,-4.8634 -23.716,-7.242 -31.486,-5.3378 -10.783,2.6424 -17.715,9.7754 -30.09,30.96 -10.427,17.85 -16.658,41.059 -16.034,59.72004 0.2342,7.0016 0.2032,7.3585 -0.4572,5.258 -2.9538,-9.3948 -3.4294,-16.96504 -1.7131,-27.26204 2.3539,-14.122 5.5407,-23.769 12.168,-36.836 6.0668,-11.961 7.0823,-15.035 6.8276,-20.664 -0.4468,-9.8733 -5.9745,-15.19 -20.655,-19.868 -22.343,-7.11861 -48.801,-1.06711 -55.544,12.704 -2.497,5.0995 -2.8448,7.8226 -3.3627,26.325 -0.7533,26.914 -1.1649,32.551 -2.7419,37.557 -2.0919,6.6402 -4.5268,10.901 -7.198,12.595 -1.2374,0.7847 -2.7675,1.4267 -3.4004,1.4267 -1.1179,0 -1.1023,-0.063 0.5491,-2.2266 4.1483,-5.4346 6.2891,-17.531 7.0698,-39.946 l 0.3089,-8.872 -2.2496,-2.405 c -7.6817,-8.2123 -25.081005,-12.729 -37.148005,-9.6422 -7.0715,1.8086 -13.246,6.9224 -17.012,14.089 -5.3807,10.24 -6.3077,20.086 -4.0239,42.743 1.0731,10.64504 1.1278,12.14704 0.4795,13.14504 -0.8665,1.3337 -0.9546,1.3399 -5.4663,0.3843 -1.9279,-0.4084 -5.2383,-0.7464 -7.3566,-0.7512 -2.1182,0 -3.9727,-0.2051 -4.1212,-0.4452 -0.1484,-0.2402 0.6834,-0.7834 1.8484,-1.2073 1.8452,-0.6714 3.3465,-1.0401 8.7554,-2.1506 1.0963,-0.2251 1.1201,-0.358 0.8268,-4.60344 -0.2598,-3.7611 -0.47,-4.5257 -1.5053,-5.475 -2.4103,-2.2104 -9.2022,-2.9065 -12.644,-1.2959 -2.9277,1.3702 -7.2323,6.0192 -8.9968,9.7167 -2.5486,5.34024 -3.2544,8.90724 -2.9602,14.96004 0.3087,6.3497 1.4892,10.023 7.0015,21.79 10.24,21.856 12.117,32.685 7.3279,42.268 -0.8213,1.6437 -2.2668,3.6676 -3.2119,4.4975 -1.6136,1.4168 -4.9337,2.5375 -5.5857,1.8856 -0.1615,-0.1615 0.411,-1.0962 1.2722,-2.0771 7.4136,-8.4436 6.128,-20.985 -4.417,-43.091 l -3.3548,-7.0328 -3.9663,-0.6108 c -8.8107,-1.3567 -16.546,-5.2151 -21.499,-10.724 -2.76730003,-3.0779 -4.1363,-5.5859 -5.2695,-9.6529 l -0.8371,-3.0046 -3.3047004,5.108 c -6.3427996,9.8042 -10.3089996,17.785 -12.1439996,24.437 -0.4559,1.6525 -0.9431,5.4834 -1.0827,8.513 -0.2311,5.0152 -0.135,5.8618 1.0733,9.4559 2.1668,6.4449 6.6546,12.553 12.8589996,17.5 1.2677,1.0109 2.5071004,1.8277 2.7542004,1.8149 0.247,-0.013 1.1252,-0.8835 1.9515,-1.935 0.8262,-1.0515 2.86319997,-2.9816 4.5267,-4.2891 3.0209999,-2.3748 8.7435,-5.9695 8.7435,-5.4925 0,0.1387 -1.2076,1.6759 -2.6836,3.4157 -6.5703,7.745 -8.79440003,12.263 -9.20930003,18.705 -0.81989997,12.733 8.38750003,26.064 20.55500003,29.759 2.8639,0.8699 4.3478,1.0078 8.7842,0.8163 9.1883,-0.3964 14.138,-3.0485 24.478,-13.116 3.9327,-3.8292 7.1505,-6.8235 7.1505,-6.6539 0,0.1695 -0.483,1.5991 -1.0733,3.1768 -1.409,3.7659 -3.7554,7.6874 -6.9778,11.662 l -2.6152,3.2255 1.5697,4.7868 c 3.7355,11.391 10.04,17.926 20.698,21.453 6.697,2.2164 12.118,2.8127 21.95,2.4148 10.572995,-0.4279 16.843005,-1.3049 16.599005,-2.3216 -1.0741,-4.4663 -0.2358,-17.693 1.5067,-23.77 l 0.5743,-2.0031 0.3892,1.5023 c 0.2141,0.8263 0.7428,5.6782 1.175,10.782 0.4321,5.1039 1.1313,10.606 1.5537,12.228 1.9677,7.5545 7.7484,14.404 15.549,18.423 6.8914,3.5508 12.978,5.0194 21.075,5.0848 3.6259,0.029 6.7165,-0.07 6.8681,-0.2214 0.1515,-0.151 -0.2933,-1.683 -0.9886,-3.4043 -2.1692,-5.3705 -2.7288,-9.5047 -2.9587,-21.86 -0.2428,-13.048 -0.4348,-13.221 3.0425,2.7542 2.2487,10.331 4.2704,16.522 6.4974,19.898 4.1745,6.3286 14.043,11.621 25.984,13.936 4.3206,0.8375 18.827,0.5672 25.571,-0.4764 z m -80.555,-43.766 c -4.5452,-7.2 -6.8791,-20.739 -5.3628,-31.109 0.3338,-2.2826 0.5029,-4.2541 0.3758,-4.3811 -0.6589,-0.659 -8.833,-2.2705 -14.059,-2.7717 -12.97501,-1.2444 -20.683005,0.9876 -31.438005,9.103 l -1.6501,1.2452 1.2274,-1.7459 c 0.675,-0.9603 2.8866,-3.6204 4.9146,-5.9114 5.6891,-6.4271 7.2944,-10.815 6.1272,-16.749 -0.7625,-3.8753 -2.4853,-7.3132 -4.85,-9.6779 -2.157,-2.157 -7.6124,-4.8489 -12.19,-6.015 -4.1623,-1.0603 -11.409,-0.6922 -15.953,0.8104 -1.7509,0.579 -3.2761,0.9602 -3.3892,0.8471 -0.3064,-0.3064 3.6106,-2.9311 6.5074,-4.3606 1.9146,-0.9446 2.639,-1.6206 2.9522,-2.7542 0.6179,-2.2364 0.064,-5.991 -1.335,-9.0464 -1.2101,-2.6433 -5.8754,-7.8584 -9.0632,-10.132 l -1.5023,-1.0712 1.5475,-0.016 c 2.1169,-0.021 6.9267,2.4811 10.064,5.2368 3.5037,3.0776 5.2461,6.702 5.5579,11.562 l 0.2386,3.7171 1.8452,0 c 9.3985,0 19.014,5.9363 23.099,14.261 1.602595,3.2656 1.712495,3.8075 1.675095,8.2626 -0.027,3.1713 -0.3218,5.5066 -0.8817,6.9742 -0.462895,1.2135 -0.773395,2.2747 -0.689795,2.3582 0.083,0.083 1.494295,-0.2264 3.135095,-0.6887 4.74781,-1.3378 19.58101,-1.1731 25.43201,0.2824 2.4317,0.6048 4.5115,1.0998 4.6219,1.0998 0.1103,0 0.6834,-0.9577 1.2734,-2.1282 3.264,-6.4757 8.9243,-12.173 15.557,-15.658 l 3.4668,-1.8217 -3.5256,-2.4759 c -8.5723,-6.02 -15.298,-18.065 -17.866,-31.998 -0.6516,-3.535 -0.8773,-7.3947 -0.8785,-15.023 0,-12.579 1.0757,-21.35404 4.9619,-40.40304 4.2571,-20.867 5.8219,-25.752 9.2749,-28.953 1.6142,-1.4965 1.6191,-1.4975 1.2762,-0.2504 -1.228,4.4664 -6.4931,27.611 -7.7462,34.052 -2.9211,15.013 -3.3028,18.78004 -3.2982,32.55004 0,14.336 0.5828,18.377 3.9956,27.932 2.6109,7.3096 8.4224,15.217 13.641,18.56 2.9473,1.8883 9.9495,4.2518 15.893,5.3644 4.8942,0.9162 15.868,0.782 19.284,-0.2358 1.0826,-0.3226 3.0056,-1.7943 5.0076,-3.8329 5.4606,-5.5599 9.3428,-7.7739 20.276,-11.563 1.928,-0.6682 6.0968,-1.6613 9.2642,-2.2069 9.6552,-1.6633 14.178,-4.4248 17.226,-10.519 3.9962,-7.988 4.1697,-14.576 0.8245,-31.309 -1.1065,-5.5346 -2.2166,-12.42204 -2.467,-15.30604 -0.4978,-5.7336 0.01,-12.891 1.0973,-15.55 0.6406,-1.5629 0.6923,-1.3577 1.0244,4.0701 0.6617,10.813 2.7792,22.99904 5.8376,33.59404 3.5444,12.278 1.973,23.282 -4.4826,31.39 l -1.9997,2.5116 4.9393,0.5986 c 12.949,1.5694 20.741,5.1324 25.769,11.783 l 1.4484,1.9158 3.8096,-0.3387 c 8.6156,-0.7659 14.052,-3.1495 19.373,-8.4945 6.2385,-6.266 9.4599,-13.251 11.92,-25.845 0.7263,-3.7182 1.6158,-9.6898 1.9767,-13.27 l 0.6561,-6.5099 0.6911,2.2534 c 0.4566,1.4889 0.6732,4.5472 0.6385,9.0138 -0.1657,21.291 -8.4313,38.493 -21.448,44.638 -2.8218,1.3319 -8.4611,2.9372 -12.929,3.6805 -1.6619,0.2764 -1.8959,0.4731 -1.684,1.4153 0.1353,0.6018 0.627,2.7843 1.0928,4.85 0.64,2.8387 0.9547,7.913 1.2886,20.782 0.433,16.68 0.9684,21.955 2.5238,24.861 0.2984,0.5577 0.4479,1.1087 0.3321,1.2245 -0.3961,0.3961 -1.789,-1.5476 -3.801,-5.304 -2.4781,-4.6264 -2.8741,-7.249 -3.5798,-23.706 -0.6919,-16.134 -1.9272,-21.8 -5.9901,-27.474 -3.6897,-5.1526 -9.3651,-7.963 -19.506,-9.659 -7.1841,-1.2015 -21.917,-0.8437 -27.923,0.6782 -10.251,2.5975 -15.929,5.4095 -21.381,10.588 -7.6159,7.2344 -11.033,16.929 -9.1403,25.933 1.3683,6.5096 7.9752,17.993 16.05,27.896 5.0855,6.2368 5.2994,6.5654 3.7267,5.7254 -0.6529,-0.3488 -4.5761,-4.0331 -8.718,-8.1874 -6.0212,-6.0391 -8.1473,-8.5572 -10.606,-12.561 -3.2556,-5.3022 -5.3503,-10.726 -5.9021,-15.281 -0.4089,-3.376 0.3939,-9.5117 1.7491,-13.367 0.5538,-1.5758 1.007,-2.8729 1.007,-2.8824 0,-0.01 -3.4365,-0.039 -7.6367,-0.065 -5.1348,-0.032 -8.8368,-0.3194 -11.3,-0.8764 -5.3354,-1.2065 -7.8901,-1.0665 -12.082,0.6621 -10.36,4.2723 -15.39,9.6442 -18.517,19.778 -0.6567,2.128 -1.1902,5.5503 -1.3663,8.7634 -0.3361,6.1355 0.5468,20.345 1.5564,25.047 0.3838,1.7876 0.618,3.33 0.5205,3.4275 -0.098,0.098 -0.7427,-0.7183 -1.4337,-1.813 z m 178.38,-37.889 c -1.83,-0.3821 -4.8994,-1.3551 -6.821,-2.1625 -3.3322,-1.4 -12.136,-5.9998 -12.136,-6.3407 0,-0.089 2.6026,0.588 5.7836,1.5047 10.684,3.079 18.708,3.4439 26.68,1.2135 9.6597,-2.7025 16.372,-7.8801 27.266,-21.032 3.308,-3.9936 6.2301,-7.4864 6.4936,-7.7618 1.001,-1.0465 -6.3465,13.174 -8.451,16.356 -5.648,8.5402 -13.592,14.726 -22.316,17.378 -4.4573,1.3549 -12.165,1.7494 -16.5,0.8445 z m -215.020005,-42.825 c -11.123,-8.328 -18.59,-16.76 -22.801,-25.746 -2.9141,-6.2186 -3.6304,-9.9 -3.3242,-17.086 0.3009,-7.06524 1.2941,-10.75704 5.5381,-20.58704 2.4217,-5.6094 3.4067,-8.7924 5.174,-16.72 0.2661,-1.1933 0.3224,-1.1581 1.2039,0.7511 1.6572,3.5891 1.2996,8.5246 -1.1064,15.273 -5.4358,15.24704 -6.4846,22.21004 -4.5253,30.04604 2.6905,10.76 10.445,21.34 24.005995,32.753 2.2602,1.9021 4.10931,3.7161 4.10931,4.0312 0,0.7228 -1.031,1.7746 -1.73951,1.7746 -0.2957,0 -3.2365,-2.0207 -6.534995,-4.4904 z m 278.700005,-25.622 c 3.3319,-11.757 0.7553,-22.232 -7.0784,-28.77704 l -2.056,-1.7178 -1.9169,1.7318 c -3.0822,2.7846 -6.9401,2.987 -13.995,0.7342 l -3.7557,-1.1992 6.4879,-0.1409 c 7.5943,-0.165 7.9504,-0.3485 8.8252,-4.5472 0.7183,-3.4476 0.2656,-11.879 -0.8371,-15.592 -0.8782,-2.9571 -3.916,-6.5876 -6.6917,-7.9973 -2.8392,-1.442 -9.9199,-3.5209 -11.992,-3.5209 -1.7391,0 -2.0347,0.2129 -3.4448,2.4813 -1.8745,3.0154 -4.8046,4.9352 -10.467,6.8576 -2.2908,0.7778 -4.165,1.5744 -4.165,1.7702 0,0.1958 1.3149,2.4522 2.922,5.0143 1.6071,2.5621 3.786,6.2357 4.8421,8.1636 1.0561,1.928 1.9609,3.5656 2.0107,3.6391 0.05,0.074 1.4069,-0.6588 3.0155,-1.6275 1.6087,-0.9687 3.2014,-1.7612 3.5393,-1.7612 0.338,0 1.006,-0.1502 1.4845,-0.3339 0.4937,-0.1895 -0.2451,1.1211 -1.7087,3.0306 -1.4183,1.8505 -2.7166,3.9139 -2.8852,4.5855 -0.4468,1.7802 -0.034,4.4072 1.4864,9.47504 0.741,2.4687 1.5879,6.6375 1.8821,9.2641 0.8717,7.785 0.7322,7.5624 2.6955,4.3021 3.7028,-6.1492 6.2761,-8.4618 10.095,-9.0725 5.4652,-0.8739 11.492,5.5163 16.949,17.97 l 1.9359,4.4183 0.8882,-1.7311 c 0.4884,-0.9521 1.3585,-3.3911 1.9335,-5.4199 z m -353.280005,1.6945 c -1.9751,-5.1161 -2.4673,-14.887 -1.0531,-20.907 2.0384,-8.67784 7.806,-16.69704 14.145,-19.66704 2.5636,-1.2011 3.5155,-1.3652 7.9214,-1.3652 2.7542,0 5.6837,0.1748 6.5099,0.3885 l 1.5023,0.3886 -0.1601,-8.6512 c -0.3047,-16.468 2.1491,-26.467 8.5017,-34.642 l 2.3519,-3.0266 -2.2798,-0.8655 c -2.7432,-1.0413 -5.9721,-3.2074 -6.385,-4.2833 -0.1648,-0.4293 -0.2379,-0.8277 -0.1626,-0.8854 0.075,-0.058 3.2078,0.3485 6.9611,0.9026 l 6.824,1.0073 3.3648,-1.8495 c 1.8506,-1.0172 4.7514,-2.1765 6.4462,-2.5761 3.9254,-0.9258 15.492,-0.9445 19.745,-0.032 3.016995,0.6471 3.172495,0.632 3.880895,-0.3795 2.071,-2.9567 -0.3691,-6.0885 -5.799895,-7.4442 -1.7749,-0.443 -5.1424,-1.2836 -7.4835,-1.868 -2.3411,-0.5843 -6.9014,-2.3187 -10.134,-3.8542 -4.7591,-2.2605 -6.9031,-2.9694 -11.267,-3.7253 -12.704,-2.2007 -20.121,-0.686 -26.524,5.4162 -3.9437,3.7585 -6.6021,8.3969 -9.6668,16.867 -5.1433,14.214 -7.1692,16.587 -19.232,22.527 -8.6845,4.2761 -11.74700003,6.7448 -14.09,11.357 -2.0046,3.9459 -2.7156,7.1404 -2.7204,12.224 -0.01,3.7666 1.1814,13.124 1.7318,13.674 0.089,0.088 0.7604,-1.1493 1.49309997,-2.7506 0.7326,-1.6013 2.95290003,-5.693 4.93380003,-9.0926 2.6292999,-4.5123 3.646,-5.8894 3.7659,-5.1007 0.2142,1.409 -1.6672001,7.5675 -3.2896,10.768 -1.9253,3.7986 -3.61120003,9.1045 -4.17960003,13.15404 -1.26129997,8.9859 2.83020003,16.871 11.10100003,21.393 3.1422,1.7181 9.4659,3.7085 11.906,3.7474 1.4011,0.023 1.6247,-0.1191 1.3427,-0.8495 z m -4.6286,-61.91604 c 9.8134,-3.2864 10.777,-4.2817 11.363,-11.734 0.3534,-4.4978 0.5979,-5.4112 2.2295,-8.3287 1.0079,-1.8022 1.8779,-3.2761 1.9332,-3.2752 0.055,0 0.1007,4.2657 0.1007,9.4774 0,8.8372 -0.071,9.5711 -1.0497,10.89 -2.7046,3.6437 -7.5663,5.1838 -16.227,5.1403 l -4.7572,-0.024 6.4074,-2.1458 z m 310.080005,7.1713 c 6.4728,-3.7715 8.0751,-6.3711 7.6436,-12.401 -0.4461,-6.2351 -4.3796,-11.775 -10.278,-14.475 -2.8231,-1.2925 -11.762,-3.0907 -15.504,-3.1187 -2.0297,-0.015 -2.1179,0.05 -2.4479,1.8091 -0.1882,1.0037 -0.2148,3.9622 -0.059,6.5746 l 0.2834,4.7498 -1.6387,-2.4433 c -3.3962,-5.0633 -4.7384,-11.439 -3.0822,-14.642 0.7355,-1.4224 6.1641,-5.3764 6.6771,-4.8633 0.158,0.1579 0.045,1.0757 -0.2506,2.0395 -0.2957,0.9637 -0.5025,1.7531 -0.4594,1.7541 0.043,0 2.8884,0.5524 6.3229,1.2251 3.4346,0.6727 6.3274,1.1405 6.4285,1.0393 0.3802,-0.3803 -1.0597,-6.0983 -2.0037,-7.9566 -2.0698,-4.0748 -7.0962,-7.6897 -15.297,-11.002 -3.9591,-1.5988 -13.667,-4.0888 -28.662,-7.3521 -6.4664,-1.4072 -11.856,-2.6573 -11.976,-2.778 -0.1207,-0.1207 4.5503,-0.2195 10.38,-0.2195 8.6245,0 10.6,-0.1274 10.6,-0.6838 0,-0.3761 -0.7951,-2.27342 -1.767,-4.21602 -3.1389,-6.2742 -8.7063,-10.869 -15.793,-13.035 -3.9904,-1.2194 -11.231,-1.8462 -15.744,-1.3629 -2.8423,0.30442 -3.2731,0.47713 -2.9649,1.1887 0.1983,0.4579 0.4666,2.2433 0.5962,3.9675 0.2181,2.9023 0.3334,3.1555 1.554,3.4119 1.5759,0.33105 13.808,5.0734 15.59,6.0446 l 1.252,0.682 -1.252,-0.25755 c -6.1736,-1.2699 -18.542,-2.7498 -22.963,-2.7473 -12.182,0.007 -24.428,3.3038 -30.356,8.17297 l -1.4898,1.2238 -2.0369,-3.5736 c -1.1203,-1.96557 -3.0026,-5.37617 -4.1831,-7.57927 l -2.1463,-4.0056 4.3177,4.4269 c 2.443,2.5048 4.58,4.2997 4.9218,4.134 0.3323,-0.16104 1.6701,-1.0628 2.9731,-2.0039 4.5608,-3.2941 14.374,-5.7573 23.06,-5.7883 5.4704,-0.0195 5.7289,-0.18778 5.1367,-3.3444 -1.0277,-5.4783 -14.978,-13.712 -27.061,-15.973 -6.8834,-1.2878 -17.593,-0.82842 -23.286,0.99877 -4.3708,1.4029 -9.8771,4.1582 -10.99,5.4994 -0.3449,0.41553 -0.661,1.4941 -0.7024,2.3969 -0.073,1.5963 -0.01,1.6524 2.4285,2.0453 5.4474,0.8789 7.7618,1.4411 7.7618,1.8854 0,0.27492 -5.7411,0.46486 -14.051,0.46486 -10.193,0 -13.956,-0.15308 -13.706,-0.5575 0.7162,-1.1587 4.6739,-2.4196 8.6304,-2.7496 3.8726,-0.32294 4.1041,-0.40842 4.1041,-1.515 0,-1.4397 -2.4967,-3.1973 -6.761,-4.7596 -4.0607,-1.4877 -13.429,-1.5964 -18.277,-0.21213 -4.6054,1.315 -8.4193,3.1762 -9.3176,4.5471 -0.8307,1.2678 -0.5593,2.1896 1.38,4.6884 1.2238,1.5769 1.1695,2.7362 -0.1999,4.2612 -0.9264,1.0317 -2.2709,1.4862 -7.5629,2.5563 -3.54,0.71584 -6.6923,1.2162 -7.0051,1.112 -0.3129,-0.10431 1.4726,-1.244 3.9678,-2.5327 6.6653,-3.4425 6.6011,-3.3814 5.402,-5.1435 -0.5417,-0.79612 -1.2508,-2.0672 -1.5758,-2.8246 -0.5678,-1.3236 -0.7335,-1.3771 -4.268,-1.3771 -6.0468,0 -11.414,2.4438 -15.749,7.1713 -2.2511,2.4548 -2.5574,3.3666 -1.4422,4.2922 0.3773,0.31313 1.3196,1.9745 2.0939,3.6918 1.9742,4.3785 2.2632,9.94067 0.7718,14.85097 -0.5922,1.9496 -1.1588,3.5447 -1.2591,3.5447 -0.1004,0 -0.2088,-1.8769 -0.2411,-4.1708 -0.1077,-7.6618 -2.3637,-13.32897 -6.1961,-15.56497 -1.1633,-0.67859 -4.0304,-1.7288 -6.3715,-2.3338 -7.785005,-2.0117 -18.333005,-0.44818 -22.180005,3.2878 -2.9764,2.8907 -3.1183,7.29487 -0.3371,10.46197 1.5209,1.7323 1.8592,1.8591 10.248,3.8408 5.9105,1.3962 11.137995,3.91 13.448005,6.4664 1.5922,1.7624 1.8256,2.3439 1.8256,4.548 0,1.39 -0.3546,3.213 -0.788,4.0512 -0.4335,0.8382 -0.7152,1.5662 -0.626,1.6178 0.089,0.052 1.6093,0.7631 3.3781,1.581 1.7687,0.8179 4.4265,2.3321 5.9062,3.3649 1.4796,1.0328 2.7596,1.8779 2.8445,1.8779 0.085,0 0.308,-2.1885 0.4961,-4.8634 0.8033,-11.427 3.488,-18.359 9.1967,-23.744 5.4687,-5.15897 13.082,-8.45717 23.57,-10.21097 6.2725,-1.0488 19.474,-0.81589 26.347,0.46486 10.191,1.899 19.274,6.1101 24.72,11.46001 3.0856,3.0316 5.9386,8.3318 6.414,11.915 0.1794,1.3526 0.3654,2.4592 0.4133,2.4592 0.048,0 2.3428,-2.1971 5.0998,-4.8825 8.4825,-8.262 13.879,-10.692 24.48,-11.023 5.2781,-0.1648 7.3677,-0.01 11.043,0.8194 21.426,4.8338 36.728,17.104 37.591,30.144 0.1918,2.9004 -0.017,4.7257 -0.9481,8.2826 l -1.1942,4.5624 4.8071,0.3151 c 12.839,0.8414 25.413,6.9325 32.015,15.509 1.204,1.5641 2.3343,2.8438 2.5118,2.8438 0.1774,0 1.8964,-0.917 3.82,-2.0378 z"
           style="fill:#ff8080"
           id="path3960" />
      </g>
      <path
         style="opacity:1;fill:#f4d7d7;fill-opacity:0.98823529;stroke:none;stroke-width:1.60000002;stroke-linecap:round;stroke-linejoin:round;stroke-miterlimit:4;stroke-dasharray:none;stroke-dashoffset:0;stroke-opacity:1"
         d="m 121.49688,840.50878 c -1.78088,-8.93161 12.11296,-28.49622 18.03571,-25.35714 7.16608,3.23676 -12.32143,6.24999 -18.03571,25.35714 z"
         id="path4189" />
      <path
         id="path4194"
         d="m 87.060392,829.80238 c -2.726215,-11.20134 3.864399,-20.10134 5.284352,-15.79814 1.419953,4.30321 -5.800475,0.64633 -5.284352,15.79814 z"
         style="opacity:1;fill:#f4d7d7;fill-opacity:0.98823529;stroke:none;stroke-width:1.60000002;stroke-linecap:round;stroke-linejoin:round;stroke-miterlimit:4;stroke-dasharray:none;stroke-dashoffset:0;stroke-opacity:1" />
      <path
         id="path4196"
         d="m 118.90207,891.21583 c -0.0621,-8.18786 18.51497,-11.99552 22.70892,-8.91369 -5.32379,4.33516 -12.71404,-3.02612 -22.70892,8.91369 z"
         style="opacity:1;fill:#f4d7d7;fill-opacity:0.98823529;stroke:none;stroke-width:1.60000002;stroke-linecap:round;stroke-linejoin:round;stroke-miterlimit:4;stroke-dasharray:none;stroke-dashoffset:0;stroke-opacity:1" />
      <path
         style="opacity:1;fill:#f4d7d7;fill-opacity:0.98823529;stroke:none;stroke-width:1.60000002;stroke-linecap:round;stroke-linejoin:round;stroke-miterlimit:4;stroke-dasharray:none;stroke-dashoffset:0;stroke-opacity:1"
         d="m 69.473849,844.03408 c -7.756194,8.52899 -6.230914,19.49803 -2.924083,16.39986 3.306832,-3.09819 -4.783082,-3.34447 2.924083,-16.39986 z"
         id="path4198" />
      <path
         style="fill:#aa0000;fill-rule:evenodd;stroke:#000000;stroke-width:1px;stroke-linecap:butt;stroke-linejoin:miter;stroke-opacity:1"
         d="m 92.0326,967.65164 c 7.142857,0 13.57143,-2.85715 14.28571,7.85714 0.71429,10.71429 2.44308,15.53353 -9.122909,17.92895 -4.999999,2.1428 -34.354423,9.32897 -37.925852,8.61467 C 55.698121,1001.3381 29.749987,989.2607 46.264473,978.22107 57.30858,970.83829 92.0326,967.65164 92.0326,967.65164 Z"
         id="path4200" />
      <path
         style="fill:#ffffff;fill-opacity:1;fill-rule:evenodd;stroke:#000000;stroke-width:1px;stroke-linecap:butt;stroke-linejoin:miter;stroke-opacity:1"
         id="path4208"
         d="m 86.418032,963.58273 c 1.895955,0.0468 3.802169,-0.42555 5.456892,-1.35223 1.654722,-0.92668 3.053489,-2.30516 4.004228,-3.94618 2.105433,0.259 4.077917,1.45557 5.280308,3.20319 1.2024,1.74762 1.61489,4.01749 1.10423,6.07641 -0.36712,1.4802 -1.18713,2.83082 -2.25958,3.91508 -1.072459,1.08426 -2.39095,1.90886 -3.797677,2.49784 -2.813455,1.17795 -5.921874,1.41632 -8.970091,1.52343 -2.590159,0.091 -5.22446,0.0926 -7.718515,-0.61234 -1.247027,-0.35246 -2.450249,-0.88261 -3.508748,-1.63019 -1.0585,-0.74758 -1.969865,-1.7171 -2.583876,-2.85828 -1.086065,-2.01852 -1.163291,-4.5492 -0.202327,-6.63019 0.960965,-2.08099 2.93749,-3.66328 5.178348,-4.14549 1.929584,2.39554 4.941727,3.88303 8.016808,3.95895 z" />
      <path
         style="fill:#f9f9f9;fill-rule:evenodd;stroke:#000000;stroke-width:1px;stroke-linecap:butt;stroke-linejoin:miter;stroke-opacity:1"
         d="m 51.318315,974.97307 c 4.728947,-1.5497 8.252758,0.34537 14.377628,4.02048 10.868142,6.52121 8.396574,13.32415 6.850707,19.90809 -0.426141,1.81496 -13.192621,3.39286 -13.192621,3.39286 0,0 -17.678571,-6.78572 -18.392857,-14.10715 -0.714285,-7.32143 5.038922,-11.47148 10.357143,-13.21428 z"
         id="path4233" />
      <path
         style="fill:none;fill-rule:evenodd;stroke:#000000;stroke-width:0.99999994px;stroke-linecap:butt;stroke-linejoin:miter;stroke-opacity:1"
         d="m 74.907329,982.22648 c -0.800387,2.39911 -1.600774,5.42957 0.686045,4.98762 2.286821,-0.44194 3.944765,-1.01015 3.144378,-2.90418 -0.800387,-1.89404 -3.830423,-2.08344 -3.830423,-2.08344 z"
         id="path4243" />
      <path
         style="fill:#ffffff;fill-rule:evenodd;stroke:#000000;stroke-width:0.80000001;stroke-linecap:butt;stroke-linejoin:miter;stroke-miterlimit:4;stroke-dasharray:none;stroke-opacity:1"
         d="m 57.566829,973.45078 c 1.521399,1.24453 3.529224,-0.0779 9.722718,3.21986 3.277998,1.74539 8.270624,9.59645 9.47018,8.9651 2.417258,-1.27224 -0.757614,-4.48254 -4.545686,-7.76554 -3.788072,-3.28299 -16.547418,-8.06305 -14.647212,-4.41942 z"
         id="path4239" />
      <path
         id="path4245"
         d="m 81.410186,980.20617 c -0.800387,2.39911 -1.600774,5.42957 0.686045,4.98762 2.286821,-0.44194 3.944765,-1.01015 3.144378,-2.90418 -0.800387,-1.89404 -3.830423,-2.08344 -3.830423,-2.08344 z"
         style="fill:none;fill-rule:evenodd;stroke:#000000;stroke-width:0.99999994px;stroke-linecap:butt;stroke-linejoin:miter;stroke-opacity:1" />
      <path
         id="path4241"
         d="m 63.501475,971.61988 c 1.521399,1.24453 3.529224,-0.0779 9.722718,3.21986 3.277998,1.74539 8.270624,9.59645 9.47018,8.9651 2.417258,-1.27224 -0.757614,-4.48254 -4.545686,-7.76554 -3.788072,-3.28299 -16.547418,-8.06305 -14.647212,-4.41942 z"
         style="fill:#ffffff;fill-rule:evenodd;stroke:#000000;stroke-width:0.80000001;stroke-linecap:butt;stroke-linejoin:miter;stroke-miterlimit:4;stroke-dasharray:none;stroke-opacity:1" />
      <path
         style="fill:#800000;fill-rule:evenodd;stroke:none;stroke-width:1px;stroke-linecap:butt;stroke-linejoin:miter;stroke-opacity:1"
         d="m 73.371886,999.40256 c 0,0 16.899161,-3.45633 26.696434,-7.23214 4.61923,-0.88105 8.57142,-5.00001 5.53571,-15 -8.213087,1.8523 -1.27449,13.2677 -32.232144,22.23214 z"
         id="path4275" />
      <path
         style="fill:#f2f2f2;fill-rule:evenodd;stroke:#000000;stroke-width:0.99999994px;stroke-linecap:butt;stroke-linejoin:miter;stroke-opacity:1"
         d="m 98.751085,977.78018 c -2.674427,3.22423 -2.311278,8.66514 0.990552,7.95982 3.301823,-0.7053 5.695653,-1.61211 4.540013,-4.63483 -1.15565,-3.02273 -2.85615,-6.54922 -5.530565,-3.32499 z"
         id="path4247" />
      <path
         id="path4249"
         d="m 170.65138,1004.2604 c 2.62115,7.1043 -10.67834,5.9933 -18.18274,6.566 -19.36269,-1.0162 -19.8988,0.8186 -24.87502,-4.4194 -8.33375,-3.283 -10.5386,-6.40923 -8.96509,-14.01586 6.62427,-8.99559 49.4017,4.76496 52.02285,11.86926 z"
         style="fill:#f2f2f2;fill-rule:evenodd;stroke:#000000;stroke-width:1px;stroke-linecap:butt;stroke-linejoin:miter;stroke-opacity:1" />
      <path
         id="path4251"
         d="m 138.01651,967.65164 c -16.82967,0.88388 -17.86457,-0.0792 -18.57885,10.63506 -0.71429,10.71429 -2.06428,21.7207 5.96618,23.4848 5,2.1428 21.47498,6.6773 25.04641,5.963 3.57142,-0.7143 25.60523,-8.75109 14.01523,-21.93729 -8.77019,-9.97805 -15.68021,-17.51422 -26.44897,-18.14557 z"
         style="fill:#aa0000;fill-rule:evenodd;stroke:#000000;stroke-width:1px;stroke-linecap:butt;stroke-linejoin:miter;stroke-opacity:1" />
      <path
         d="m 136.05494,966.10811 c -1.89595,0.0468 -3.80217,-0.42555 -5.45689,-1.35223 -1.65472,-0.92668 -3.05349,-2.30517 -4.00423,-3.94618 -2.10543,0.259 -4.07792,1.45557 -5.28031,3.20319 -1.2024,1.74762 -1.61489,4.01749 -1.10423,6.07641 0.36712,1.4802 1.18713,2.83082 2.25959,3.91508 1.07245,1.08426 2.39094,1.90886 3.79767,2.49784 2.81345,1.17795 5.92187,1.41632 8.97009,1.52343 2.59016,0.091 5.22446,0.0926 7.71852,-0.61234 1.24702,-0.35246 2.45024,-0.8826 3.50874,-1.63019 1.0585,-0.74758 1.96987,-1.7171 2.58388,-2.85828 1.08607,-2.01852 1.16329,-4.5492 0.20233,-6.63019 -0.96097,-2.08099 -2.93749,-3.66328 -5.17835,-4.14549 -1.92958,2.39554 -4.94173,3.88303 -8.01681,3.95895 z"
         id="path4253"
         style="fill:#ffffff;fill-opacity:1;fill-rule:evenodd;stroke:#000000;stroke-width:1px;stroke-linecap:butt;stroke-linejoin:miter;stroke-opacity:1" />
      <path
         id="path4259"
         d="m 141.63161,980.58498 c 0.6751,2.39911 1.35022,5.42957 -0.57867,4.98762 -1.92889,-0.44194 -3.32734,-1.01015 -2.65223,-2.90418 0.67511,-1.89404 3.2309,-2.08344 3.2309,-2.08344 z"
         style="fill:none;fill-rule:evenodd;stroke:#000000;stroke-width:0.99999994px;stroke-linecap:butt;stroke-linejoin:miter;stroke-opacity:1" />
      <path
         style="fill:none;fill-rule:evenodd;stroke:#000000;stroke-width:1px;stroke-linecap:butt;stroke-linejoin:miter;stroke-opacity:1"
         d="m 137.42273,977.55452 c 0.65424,2.39911 1.30846,5.42957 -0.56077,4.98762 -1.86924,-0.44194 -3.22443,-1.01015 -2.57019,-2.90418 0.65422,-1.89404 3.13096,-2.08344 3.13096,-2.08344 z"
         id="path4263" />
      <path
         id="path4261"
         d="m 162.39275,981.97288 c -1.93392,0.35137 -3.0494,-1.7784 -10.06516,-1.89507 -3.7132,-0.0617 -11.88504,4.38645 -12.62839,3.25288 -1.49794,-2.28427 2.83494,-3.55391 7.73944,-4.58998 4.9045,-1.03606 18.38198,0.96578 14.95411,3.23217 z"
         style="fill:#ffffff;fill-rule:evenodd;stroke:#000000;stroke-width:0.80000001;stroke-linecap:butt;stroke-linejoin:miter;stroke-miterlimit:4;stroke-dasharray:none;stroke-opacity:1" />
      <path
         id="path4277"
         d="m 149.15437,967.3512 c 2.40041,10.80077 -14.01508,11.67219 -21.32202,9.16342 20.44618,-0.91766 16.71109,-7.8156 21.32202,-9.16342 z"
         style="fill:#cccccc;fill-rule:evenodd;stroke:none;stroke-width:1px;stroke-linecap:butt;stroke-linejoin:miter;stroke-opacity:1" />
      <path
         style="fill:#ffffff;fill-rule:evenodd;stroke:#000000;stroke-width:0.80000001;stroke-linecap:butt;stroke-linejoin:miter;stroke-miterlimit:4;stroke-dasharray:none;stroke-opacity:1"
         d="m 158.59936,977.86334 c -1.92087,0.41685 -3.10804,-1.6738 -10.12372,-1.55212 -3.71316,0.0644 -11.72919,4.78759 -12.51062,3.67992 -1.57466,-2.23208 2.71261,-3.64814 7.57909,-4.8502 4.86647,-1.20204 18.40417,0.34089 15.05525,2.7224 z"
         id="path4265" />
      <path
         id="path4279"
         d="m 137.8189,989.05767 c -9.94611,8.35977 2.51627,19.30233 -13.51924,12.62723 -4.18755,-3.67494 -6.08706,-6.02577 -4.46247,-18.90673 8.23818,-1.73735 -2.1242,19.00663 17.98171,6.2795 z"
         style="fill:#800000;fill-rule:evenodd;stroke:none;stroke-width:1px;stroke-linecap:butt;stroke-linejoin:miter;stroke-opacity:1" />
      <path
         id="path4267"
         d="m 123.52138,982.07333 c 1.07541,3.22423 0.92939,8.66514 -0.39831,7.95982 -1.32771,-0.7053 -2.29029,-1.61211 -1.8256,-4.63483 0.4647,-3.02273 1.14849,-6.54922 2.22391,-3.32499 z"
         style="fill:#f2f2f2;fill-rule:evenodd;stroke:#000000;stroke-width:1px;stroke-linecap:butt;stroke-linejoin:miter;stroke-opacity:1" />
      <path
         id="path4257"
         d="m 165.81373,986.42671 c -3.85902,-3.53786 -8.00664,-3.19344 -15.37478,-2.2222 -13.07421,1.72337 -18.56144,9.07679 -18.997,16.27289 -0.35099,5.7989 7.36574,7.1564 7.36574,6.8139 0,0 27.62788,3.3312 31.36208,-3.5187 3.73416,-6.84971 -0.0161,-13.36719 -4.35604,-17.34589 z"
         style="fill:#f9f9f9;fill-rule:evenodd;stroke:#000000;stroke-width:1px;stroke-linecap:butt;stroke-linejoin:miter;stroke-opacity:1" />
      <path
         style="fill:#cccccc;fill-rule:evenodd;stroke:none;stroke-width:1px;stroke-linecap:butt;stroke-linejoin:miter;stroke-opacity:1"
         d="m 99.235621,960.22755 c 7.007929,5.49271 -0.266434,13.91725 -5.871511,14.07901 11.99556,-4.35629 1.704635,-15.3417 5.871511,-14.07901 z"
         id="path4273" />
    </g>
    <rect
       style="opacity:1;fill:#217844;fill-opacity:0.71065991;stroke:none;stroke-width:0.80000001;stroke-linecap:round;stroke-linejoin:round;stroke-miterlimit:4;stroke-dasharray:none;stroke-dashoffset:0;stroke-opacity:1"
       id="rect4294"
       width="153.54318"
       height="280.31729"
       x="251.32669"
       y="739.31989"
       ry="11.111679"
       rx="11.111678" />
    <rect
       rx="11.111678"
       ry="11.111678"
       y="749.09576"
       x="257.76459"
       height="82.920631"
       width="132.22229"
       id="rect4315"
       style="opacity:1;fill:#217844;fill-opacity:0.69543146;stroke:none;stroke-width:0.80000001;stroke-linecap:round;stroke-linejoin:round;stroke-miterlimit:4;stroke-dasharray:none;stroke-dashoffset:0;stroke-opacity:1" />
    <g
       transform="translate(128.70779,46.762882)"
       id="happy_eyes">
      <g
         id="use4524"
         transform="matrix(1.2311349,0,0,1.2282518,60.264359,-239.12359)">
        <ellipse
           style="opacity:1;fill:#ffffff;fill-opacity:1;stroke:#000000;stroke-width:1.21981728;stroke-linecap:round;stroke-linejoin:round;stroke-miterlimit:4;stroke-dasharray:none;stroke-dashoffset:0;stroke-opacity:1"
           id="ellipse4633"
           cx="85.575562"
           cy="808.3255"
           rx="13.214286"
           ry="17.211567" />
        <g
           id="g4635">
          <circle
             style="opacity:1;fill:#aa4400;fill-opacity:1;stroke:none;stroke-width:1.5;stroke-linecap:round;stroke-linejoin:round;stroke-miterlimit:4;stroke-dasharray:none;stroke-dashoffset:0;stroke-opacity:1"
             id="circle4637"
             cx="85.914238"
             cy="808.26276"
             r="7.5761437" />
          <path
             style="fill:#800000;fill-rule:evenodd;stroke:none;stroke-width:1px;stroke-linecap:butt;stroke-linejoin:miter;stroke-opacity:1"
             d="m 78.639743,806.724 c -0.451014,5.10512 2.238663,7.70381 4.553571,8.57141 2.314909,0.8676 6.537167,0.60203 8.660714,-2.41072 -8.501453,0.11225 -13.214285,-6.16069 -13.214285,-6.16069 z"
             id="path4639" />
          <circle
             r="5.3033004"
             cy="808.26276"
             cx="85.914238"
             id="circle4641"
             style="opacity:1;fill:#000000;fill-opacity:1;stroke:none;stroke-width:1.5;stroke-linecap:round;stroke-linejoin:round;stroke-miterlimit:4;stroke-dasharray:none;stroke-dashoffset:0;stroke-opacity:1" />
          <circle
             style="opacity:1;fill:#ffffff;fill-opacity:1;stroke:none;stroke-width:1.5;stroke-linecap:round;stroke-linejoin:round;stroke-miterlimit:4;stroke-dasharray:none;stroke-dashoffset:0;stroke-opacity:1"
             id="circle4643"
             cx="89.197235"
             cy="806.495"
             r="2.5253808" />
          <path
             style="opacity:0.85;fill:#ffffff;fill-rule:evenodd;stroke:none;stroke-width:1px;stroke-linecap:butt;stroke-linejoin:miter;stroke-opacity:1"
             d="m 81.452243,814.26863 c 0,0 0,-2.45535 0.535714,-2.63393 -0.133928,-1.33928 0.625,-2.05357 2.321429,-2.94642 -2.901786,-0.35715 -3.392857,1.60714 -3.392857,1.60714 -1.455207,0.62173 -1.741072,1.60714 -1.741072,1.60714 -0.798824,0.73737 2.276786,2.36607 2.276786,2.36607 z"
             id="path4645" />
        </g>
        <path
           id="path4647"
           d="m 95.826357,798.85569 c 3.093595,5.74524 4.404873,16.163 -2.209709,22.16022 -4.73509,4.29314 -9.193445,5.75973 -13.826463,1.6415 -4.545686,-4.04061 2.714785,3.283 13.321387,-5.3033 3.384117,-2.73953 2.714785,-18.49842 2.714785,-18.49842 z"
           style="opacity:0.41800005;fill:#cccccc;fill-rule:evenodd;stroke:none;stroke-width:1px;stroke-linecap:butt;stroke-linejoin:miter;stroke-opacity:1" />
      </g>
      <g
         transform="matrix(1.2311349,0,0,1.2282518,112.78974,-237.12866)"
         id="use4526">
        <ellipse
           ry="17.211567"
           rx="13.214286"
           cy="808.3255"
           cx="85.575562"
           id="ellipse4687"
           style="opacity:1;fill:#ffffff;fill-opacity:1;stroke:#000000;stroke-width:1.21981728;stroke-linecap:round;stroke-linejoin:round;stroke-miterlimit:4;stroke-dasharray:none;stroke-dashoffset:0;stroke-opacity:1" />
        <g
           id="g4689">
          <circle
             r="7.5761437"
             cy="808.26276"
             cx="85.914238"
             id="circle4691"
             style="opacity:1;fill:#aa4400;fill-opacity:1;stroke:none;stroke-width:1.5;stroke-linecap:round;stroke-linejoin:round;stroke-miterlimit:4;stroke-dasharray:none;stroke-dashoffset:0;stroke-opacity:1" />
          <path
             id="path4693"
             d="m 78.639743,806.724 c -0.451014,5.10512 2.238663,7.70381 4.553571,8.57141 2.314909,0.8676 6.537167,0.60203 8.660714,-2.41072 -8.501453,0.11225 -13.214285,-6.16069 -13.214285,-6.16069 z"
             style="fill:#800000;fill-rule:evenodd;stroke:none;stroke-width:1px;stroke-linecap:butt;stroke-linejoin:miter;stroke-opacity:1" />
          <circle
             style="opacity:1;fill:#000000;fill-opacity:1;stroke:none;stroke-width:1.5;stroke-linecap:round;stroke-linejoin:round;stroke-miterlimit:4;stroke-dasharray:none;stroke-dashoffset:0;stroke-opacity:1"
             id="circle4695"
             cx="85.914238"
             cy="808.26276"
             r="5.3033004" />
          <circle
             r="2.5253808"
             cy="806.495"
             cx="89.197235"
             id="circle4697"
             style="opacity:1;fill:#ffffff;fill-opacity:1;stroke:none;stroke-width:1.5;stroke-linecap:round;stroke-linejoin:round;stroke-miterlimit:4;stroke-dasharray:none;stroke-dashoffset:0;stroke-opacity:1" />
          <path
             id="path4699"
             d="m 81.452243,814.26863 c 0,0 0,-2.45535 0.535714,-2.63393 -0.133928,-1.33928 0.625,-2.05357 2.321429,-2.94642 -2.901786,-0.35715 -3.392857,1.60714 -3.392857,1.60714 -1.455207,0.62173 -1.741072,1.60714 -1.741072,1.60714 -0.798824,0.73737 2.276786,2.36607 2.276786,2.36607 z"
             style="opacity:0.85;fill:#ffffff;fill-rule:evenodd;stroke:none;stroke-width:1px;stroke-linecap:butt;stroke-linejoin:miter;stroke-opacity:1" />
        </g>
        <path
           style="opacity:0.41800005;fill:#cccccc;fill-rule:evenodd;stroke:none;stroke-width:1px;stroke-linecap:butt;stroke-linejoin:miter;stroke-opacity:1"
           d="m 95.826357,798.85569 c 3.093595,5.74524 4.404873,16.163 -2.209709,22.16022 -4.73509,4.29314 -9.193445,5.75973 -13.826463,1.6415 -4.545686,-4.04061 2.714785,3.283 13.321387,-5.3033 3.384117,-2.73953 2.714785,-18.49842 2.714785,-18.49842 z"
           id="path4701" />
      </g>
      <path
         style="opacity:1;fill:#ff8080;fill-opacity:1;stroke:#000000;stroke-width:1.5;stroke-linecap:round;stroke-linejoin:round;stroke-miterlimit:4;stroke-dasharray:none;stroke-dashoffset:0;stroke-opacity:1"
         d="m 183.41115,748.89678 -38.21428,0 c 1e-5,-8.63684 9.26885,-21.46445 19.82143,-21.46445 10.55258,0 18.39285,12.82761 18.39285,21.46445 z"
         id="path4528" />
      <path
         id="path4531"
         d="m 236.9213,750.26407 -38.21428,0 c 1e-5,-8.63685 9.26885,-21.46446 19.82143,-21.46446 10.55258,0 18.39285,12.82761 18.39285,21.46446 z"
         style="opacity:1;fill:#ff8080;fill-opacity:1;stroke:#000000;stroke-width:1.5;stroke-linecap:round;stroke-linejoin:round;stroke-miterlimit:4;stroke-dasharray:none;stroke-dashoffset:0;stroke-opacity:1" />
      <path
         style="fill:#000000;fill-rule:evenodd;stroke:none;stroke-width:1px;stroke-linecap:butt;stroke-linejoin:miter;stroke-opacity:1"
         d="m 135.86811,731.89873 c 6.05724,-2.69966 15.8139,-6.24051 25.69316,-7.03028 9.87926,-0.78977 19.88109,1.17153 24.84995,0.12597 -6.16393,-4.50551 -17.29004,-7.15896 -25.99919,-5.96927 -8.70916,1.1897 -16.52636,3.27832 -24.54392,12.87358 z"
         id="path4551" />
      <path
         id="path4553"
         d="m 248.91122,729.5773 c -6.05724,-2.69966 -15.8139,-6.24051 -25.69316,-7.03028 -9.87926,-0.78977 -19.88109,1.17153 -24.84995,0.12597 6.16393,-4.50551 17.29004,-7.15896 25.99919,-5.96927 8.70916,1.1897 16.52636,3.27832 24.54392,12.87358 z"
         style="fill:#000000;fill-rule:evenodd;stroke:none;stroke-width:1px;stroke-linecap:butt;stroke-linejoin:miter;stroke-opacity:1" />
    </g>
    <rect
       style="opacity:1;fill:#217844;fill-opacity:0.69543146;stroke:none;stroke-width:0.80000001;stroke-linecap:round;stroke-linejoin:round;stroke-miterlimit:4;stroke-dasharray:none;stroke-dashoffset:0;stroke-opacity:1"
       id="rect4577"
       width="132.22229"
       height="82.920631"
       x="260.28995"
       y="837.9892"
       ry="11.111678"
       rx="11.111678" />
    <g
       id="angry_eyes"
       transform="translate(126.94746,126.37059)">
      <g
         id="use4581"
         transform="matrix(1.2311349,0,0,1.2282518,60.264359,-239.12359)">
        <ellipse
           style="opacity:1;fill:#ffffff;fill-opacity:1;stroke:#000000;stroke-width:1.21981728;stroke-linecap:round;stroke-linejoin:round;stroke-miterlimit:4;stroke-dasharray:none;stroke-dashoffset:0;stroke-opacity:1"
           id="ellipse4651"
           cx="85.575562"
           cy="808.3255"
           rx="13.214286"
           ry="17.211567" />
        <g
           id="g4653">
          <circle
             style="opacity:1;fill:#aa4400;fill-opacity:1;stroke:none;stroke-width:1.5;stroke-linecap:round;stroke-linejoin:round;stroke-miterlimit:4;stroke-dasharray:none;stroke-dashoffset:0;stroke-opacity:1"
             id="circle4655"
             cx="85.914238"
             cy="808.26276"
             r="7.5761437" />
          <path
             style="fill:#800000;fill-rule:evenodd;stroke:none;stroke-width:1px;stroke-linecap:butt;stroke-linejoin:miter;stroke-opacity:1"
             d="m 78.639743,806.724 c -0.451014,5.10512 2.238663,7.70381 4.553571,8.57141 2.314909,0.8676 6.537167,0.60203 8.660714,-2.41072 -8.501453,0.11225 -13.214285,-6.16069 -13.214285,-6.16069 z"
             id="path4657" />
          <circle
             r="5.3033004"
             cy="808.26276"
             cx="85.914238"
             id="circle4659"
             style="opacity:1;fill:#000000;fill-opacity:1;stroke:none;stroke-width:1.5;stroke-linecap:round;stroke-linejoin:round;stroke-miterlimit:4;stroke-dasharray:none;stroke-dashoffset:0;stroke-opacity:1" />
          <circle
             style="opacity:1;fill:#ffffff;fill-opacity:1;stroke:none;stroke-width:1.5;stroke-linecap:round;stroke-linejoin:round;stroke-miterlimit:4;stroke-dasharray:none;stroke-dashoffset:0;stroke-opacity:1"
             id="circle4661"
             cx="89.197235"
             cy="806.495"
             r="2.5253808" />
          <path
             style="opacity:0.85;fill:#ffffff;fill-rule:evenodd;stroke:none;stroke-width:1px;stroke-linecap:butt;stroke-linejoin:miter;stroke-opacity:1"
             d="m 81.452243,814.26863 c 0,0 0,-2.45535 0.535714,-2.63393 -0.133928,-1.33928 0.625,-2.05357 2.321429,-2.94642 -2.901786,-0.35715 -3.392857,1.60714 -3.392857,1.60714 -1.455207,0.62173 -1.741072,1.60714 -1.741072,1.60714 -0.798824,0.73737 2.276786,2.36607 2.276786,2.36607 z"
             id="path4663" />
        </g>
        <path
           id="path4665"
           d="m 95.826357,798.85569 c 3.093595,5.74524 4.404873,16.163 -2.209709,22.16022 -4.73509,4.29314 -9.193445,5.75973 -13.826463,1.6415 -4.545686,-4.04061 2.714785,3.283 13.321387,-5.3033 3.384117,-2.73953 2.714785,-18.49842 2.714785,-18.49842 z"
           style="opacity:0.41800005;fill:#cccccc;fill-rule:evenodd;stroke:none;stroke-width:1px;stroke-linecap:butt;stroke-linejoin:miter;stroke-opacity:1" />
      </g>
      <g
         transform="matrix(1.2311349,0,0,1.2282518,112.78974,-237.12866)"
         id="use4583">
        <ellipse
           ry="17.211567"
           rx="13.214286"
           cy="808.3255"
           cx="85.575562"
           id="ellipse4705"
           style="opacity:1;fill:#ffffff;fill-opacity:1;stroke:#000000;stroke-width:1.21981728;stroke-linecap:round;stroke-linejoin:round;stroke-miterlimit:4;stroke-dasharray:none;stroke-dashoffset:0;stroke-opacity:1" />
        <g
           id="g4707">
          <circle
             r="7.5761437"
             cy="808.26276"
             cx="85.914238"
             id="circle4709"
             style="opacity:1;fill:#aa4400;fill-opacity:1;stroke:none;stroke-width:1.5;stroke-linecap:round;stroke-linejoin:round;stroke-miterlimit:4;stroke-dasharray:none;stroke-dashoffset:0;stroke-opacity:1" />
          <path
             id="path4711"
             d="m 78.639743,806.724 c -0.451014,5.10512 2.238663,7.70381 4.553571,8.57141 2.314909,0.8676 6.537167,0.60203 8.660714,-2.41072 -8.501453,0.11225 -13.214285,-6.16069 -13.214285,-6.16069 z"
             style="fill:#800000;fill-rule:evenodd;stroke:none;stroke-width:1px;stroke-linecap:butt;stroke-linejoin:miter;stroke-opacity:1" />
          <circle
             style="opacity:1;fill:#000000;fill-opacity:1;stroke:none;stroke-width:1.5;stroke-linecap:round;stroke-linejoin:round;stroke-miterlimit:4;stroke-dasharray:none;stroke-dashoffset:0;stroke-opacity:1"
             id="circle4713"
             cx="85.914238"
             cy="808.26276"
             r="5.3033004" />
          <circle
             r="2.5253808"
             cy="806.495"
             cx="89.197235"
             id="circle4715"
             style="opacity:1;fill:#ffffff;fill-opacity:1;stroke:none;stroke-width:1.5;stroke-linecap:round;stroke-linejoin:round;stroke-miterlimit:4;stroke-dasharray:none;stroke-dashoffset:0;stroke-opacity:1" />
          <path
             id="path4717"
             d="m 81.452243,814.26863 c 0,0 0,-2.45535 0.535714,-2.63393 -0.133928,-1.33928 0.625,-2.05357 2.321429,-2.94642 -2.901786,-0.35715 -3.392857,1.60714 -3.392857,1.60714 -1.455207,0.62173 -1.741072,1.60714 -1.741072,1.60714 -0.798824,0.73737 2.276786,2.36607 2.276786,2.36607 z"
             style="opacity:0.85;fill:#ffffff;fill-rule:evenodd;stroke:none;stroke-width:1px;stroke-linecap:butt;stroke-linejoin:miter;stroke-opacity:1" />
        </g>
        <path
           style="opacity:0.41800005;fill:#cccccc;fill-rule:evenodd;stroke:none;stroke-width:1px;stroke-linecap:butt;stroke-linejoin:miter;stroke-opacity:1"
           d="m 95.826357,798.85569 c 3.093595,5.74524 4.404873,16.163 -2.209709,22.16022 -4.73509,4.29314 -9.193445,5.75973 -13.826463,1.6415 -4.545686,-4.04061 2.714785,3.283 13.321387,-5.3033 3.384117,-2.73953 2.714785,-18.49842 2.714785,-18.49842 z"
           id="path4719" />
      </g>
      <path
         id="path4585"
         d="m 183.66369,754.9577 c -12.82227,-2.02031 -24.63439,-13.63706 -38.46682,-6.06092 1e-5,-8.63684 9.26885,-21.46445 19.82143,-21.46445 10.55258,0 18.89793,14.34284 18.64539,27.52537 z"
         style="opacity:1;fill:#ff8080;fill-opacity:1;stroke:#000000;stroke-width:1.5;stroke-linecap:round;stroke-linejoin:round;stroke-miterlimit:4;stroke-dasharray:none;stroke-dashoffset:0;stroke-opacity:1" />
      <path
         id="path4589"
         d="m 140.70623,727.69216 c 6.62686,-0.2512 17.00043,0.0938 26.46385,3.03781 9.46341,2.94403 18.01664,8.48709 23.01766,9.36606 -4.04412,-6.47601 -13.38323,-13.07995 -21.90946,-15.21728 -8.52623,-2.13732 -16.55917,-3.10833 -27.57205,2.81341 z"
         style="fill:#000000;fill-rule:evenodd;stroke:none;stroke-width:1px;stroke-linecap:butt;stroke-linejoin:miter;stroke-opacity:1" />
      <path
         style="opacity:1;fill:#ff8080;fill-opacity:1;stroke:#000000;stroke-width:1.5;stroke-linecap:round;stroke-linejoin:round;stroke-miterlimit:4;stroke-dasharray:none;stroke-dashoffset:0;stroke-opacity:1"
         d="m 200.00327,756.22039 c 12.82227,-2.02031 24.63439,-13.63706 38.46682,-6.06092 -1e-5,-8.63684 -9.26885,-21.46445 -19.82143,-21.46445 -10.55258,0 -18.89793,14.34284 -18.64539,27.52537 z"
         id="path4609" />
      <path
         style="fill:#000000;fill-rule:evenodd;stroke:none;stroke-width:1px;stroke-linecap:butt;stroke-linejoin:miter;stroke-opacity:1"
         d="m 245.15195,729.87759 c -6.59903,-0.65659 -16.97426,-0.94759 -26.60022,1.41132 -9.62595,2.35891 -18.50261,7.36773 -23.54808,7.93876 4.43316,-6.21618 14.1592,-12.23574 22.80032,-13.84687 8.64113,-1.61112 16.71846,-2.08831 27.34798,4.49679 z"
         id="path4591" />
    </g>
    <rect
       rx="11.111678"
       ry="11.111678"
       y="927.89276"
       x="263.3204"
       height="82.920631"
       width="132.22229"
       id="rect4593"
       style="opacity:1;fill:#217844;fill-opacity:0.69543146;stroke:none;stroke-width:0.80000001;stroke-linecap:round;stroke-linejoin:round;stroke-miterlimit:4;stroke-dasharray:none;stroke-dashoffset:0;stroke-opacity:1" />
    <g
       transform="translate(132.83506,226.27416)"
       id="sad_eyes">
      <g
         id="use4597"
         transform="matrix(1.2311349,0,0,1.2282518,60.264359,-239.12359)">
        <ellipse
           style="opacity:1;fill:#ffffff;fill-opacity:1;stroke:#000000;stroke-width:1.21981728;stroke-linecap:round;stroke-linejoin:round;stroke-miterlimit:4;stroke-dasharray:none;stroke-dashoffset:0;stroke-opacity:1"
           id="ellipse4669"
           cx="85.575562"
           cy="808.3255"
           rx="13.214286"
           ry="17.211567" />
        <g
           id="g4671">
          <circle
             style="opacity:1;fill:#aa4400;fill-opacity:1;stroke:none;stroke-width:1.5;stroke-linecap:round;stroke-linejoin:round;stroke-miterlimit:4;stroke-dasharray:none;stroke-dashoffset:0;stroke-opacity:1"
             id="circle4673"
             cx="85.914238"
             cy="808.26276"
             r="7.5761437" />
          <path
             style="fill:#800000;fill-rule:evenodd;stroke:none;stroke-width:1px;stroke-linecap:butt;stroke-linejoin:miter;stroke-opacity:1"
             d="m 78.639743,806.724 c -0.451014,5.10512 2.238663,7.70381 4.553571,8.57141 2.314909,0.8676 6.537167,0.60203 8.660714,-2.41072 -8.501453,0.11225 -13.214285,-6.16069 -13.214285,-6.16069 z"
             id="path4675" />
          <circle
             r="5.3033004"
             cy="808.26276"
             cx="85.914238"
             id="circle4677"
             style="opacity:1;fill:#000000;fill-opacity:1;stroke:none;stroke-width:1.5;stroke-linecap:round;stroke-linejoin:round;stroke-miterlimit:4;stroke-dasharray:none;stroke-dashoffset:0;stroke-opacity:1" />
          <circle
             style="opacity:1;fill:#ffffff;fill-opacity:1;stroke:none;stroke-width:1.5;stroke-linecap:round;stroke-linejoin:round;stroke-miterlimit:4;stroke-dasharray:none;stroke-dashoffset:0;stroke-opacity:1"
             id="circle4679"
             cx="89.197235"
             cy="806.495"
             r="2.5253808" />
          <path
             style="opacity:0.85;fill:#ffffff;fill-rule:evenodd;stroke:none;stroke-width:1px;stroke-linecap:butt;stroke-linejoin:miter;stroke-opacity:1"
             d="m 81.452243,814.26863 c 0,0 0,-2.45535 0.535714,-2.63393 -0.133928,-1.33928 0.625,-2.05357 2.321429,-2.94642 -2.901786,-0.35715 -3.392857,1.60714 -3.392857,1.60714 -1.455207,0.62173 -1.741072,1.60714 -1.741072,1.60714 -0.798824,0.73737 2.276786,2.36607 2.276786,2.36607 z"
             id="path4681" />
        </g>
        <path
           id="path4683"
           d="m 95.826357,798.85569 c 3.093595,5.74524 4.404873,16.163 -2.209709,22.16022 -4.73509,4.29314 -9.193445,5.75973 -13.826463,1.6415 -4.545686,-4.04061 2.714785,3.283 13.321387,-5.3033 3.384117,-2.73953 2.714785,-18.49842 2.714785,-18.49842 z"
           style="opacity:0.41800005;fill:#cccccc;fill-rule:evenodd;stroke:none;stroke-width:1px;stroke-linecap:butt;stroke-linejoin:miter;stroke-opacity:1" />
      </g>
      <g
         transform="matrix(1.2311349,0,0,1.2282518,112.78974,-237.12866)"
         id="use4599">
        <ellipse
           ry="17.211567"
           rx="13.214286"
           cy="808.3255"
           cx="85.575562"
           id="ellipse4723"
           style="opacity:1;fill:#ffffff;fill-opacity:1;stroke:#000000;stroke-width:1.21981728;stroke-linecap:round;stroke-linejoin:round;stroke-miterlimit:4;stroke-dasharray:none;stroke-dashoffset:0;stroke-opacity:1" />
        <g
           id="g4725">
          <circle
             r="7.5761437"
             cy="808.26276"
             cx="85.914238"
             id="circle4727"
             style="opacity:1;fill:#aa4400;fill-opacity:1;stroke:none;stroke-width:1.5;stroke-linecap:round;stroke-linejoin:round;stroke-miterlimit:4;stroke-dasharray:none;stroke-dashoffset:0;stroke-opacity:1" />
          <path
             id="path4729"
             d="m 78.639743,806.724 c -0.451014,5.10512 2.238663,7.70381 4.553571,8.57141 2.314909,0.8676 6.537167,0.60203 8.660714,-2.41072 -8.501453,0.11225 -13.214285,-6.16069 -13.214285,-6.16069 z"
             style="fill:#800000;fill-rule:evenodd;stroke:none;stroke-width:1px;stroke-linecap:butt;stroke-linejoin:miter;stroke-opacity:1" />
          <circle
             style="opacity:1;fill:#000000;fill-opacity:1;stroke:none;stroke-width:1.5;stroke-linecap:round;stroke-linejoin:round;stroke-miterlimit:4;stroke-dasharray:none;stroke-dashoffset:0;stroke-opacity:1"
             id="circle4731"
             cx="85.914238"
             cy="808.26276"
             r="5.3033004" />
          <circle
             r="2.5253808"
             cy="806.495"
             cx="89.197235"
             id="circle4733"
             style="opacity:1;fill:#ffffff;fill-opacity:1;stroke:none;stroke-width:1.5;stroke-linecap:round;stroke-linejoin:round;stroke-miterlimit:4;stroke-dasharray:none;stroke-dashoffset:0;stroke-opacity:1" />
          <path
             id="path4735"
             d="m 81.452243,814.26863 c 0,0 0,-2.45535 0.535714,-2.63393 -0.133928,-1.33928 0.625,-2.05357 2.321429,-2.94642 -2.901786,-0.35715 -3.392857,1.60714 -3.392857,1.60714 -1.455207,0.62173 -1.741072,1.60714 -1.741072,1.60714 -0.798824,0.73737 2.276786,2.36607 2.276786,2.36607 z"
             style="opacity:0.85;fill:#ffffff;fill-rule:evenodd;stroke:none;stroke-width:1px;stroke-linecap:butt;stroke-linejoin:miter;stroke-opacity:1" />
        </g>
        <path
           style="opacity:0.41800005;fill:#cccccc;fill-rule:evenodd;stroke:none;stroke-width:1px;stroke-linecap:butt;stroke-linejoin:miter;stroke-opacity:1"
           d="m 95.826357,798.85569 c 3.093595,5.74524 4.404873,16.163 -2.209709,22.16022 -4.73509,4.29314 -9.193445,5.75973 -13.826463,1.6415 -4.545686,-4.04061 2.714785,3.283 13.321387,-5.3033 3.384117,-2.73953 2.714785,-18.49842 2.714785,-18.49842 z"
           id="path4737" />
      </g>
      <path
         style="opacity:1;fill:#ff8080;fill-opacity:1;stroke:#000000;stroke-width:1.5;stroke-linecap:round;stroke-linejoin:round;stroke-miterlimit:4;stroke-dasharray:none;stroke-dashoffset:0;stroke-opacity:1"
         d="m 183.15861,745.36125 c -20.65095,-3.53554 -24.63439,3.03045 -36.19397,11.36421 1e-5,-8.63684 7.50108,-29.29313 18.05366,-29.29313 10.55258,0 18.14031,9.29208 18.14031,17.92892 z"
         id="path4601" />
      <path
         style="fill:#000000;fill-rule:evenodd;stroke:none;stroke-width:1px;stroke-linecap:butt;stroke-linejoin:miter;stroke-opacity:1"
         d="m 140.06747,744.56194 c 4.33033,-5.02261 11.64938,-12.38205 20.25119,-17.30469 8.60181,-4.92264 18.48634,-7.40847 22.53654,-10.47094 -7.49593,-1.45079 -18.69247,0.88771 -26.06528,5.67376 -7.37281,4.78607 -13.55573,10.0055 -16.72245,22.10187 z"
         id="path4605" />
      <path
         id="path4607"
         d="m 243.79426,746.07777 c -3.9826,-5.30256 -10.78994,-13.13775 -19.04106,-18.62796 -8.25113,-5.49022 -17.94602,-8.63544 -21.78099,-11.96346 7.57654,-0.94319 18.59038,2.14331 25.62448,7.41456 7.03411,5.27126 12.85186,10.89485 15.19757,23.17686 z"
         style="fill:#000000;fill-rule:evenodd;stroke:none;stroke-width:1px;stroke-linecap:butt;stroke-linejoin:miter;stroke-opacity:1" />
      <path
         id="path4611"
         d="m 201.51288,746.62394 c 20.65095,-3.53554 24.63439,3.03045 36.19397,11.36421 -1e-5,-8.63684 -7.50108,-29.29313 -18.05366,-29.29313 -10.55258,0 -18.14031,9.29208 -18.14031,17.92892 z"
         style="opacity:1;fill:#ff8080;fill-opacity:1;stroke:#000000;stroke-width:1.5;stroke-linecap:round;stroke-linejoin:round;stroke-miterlimit:4;stroke-dasharray:none;stroke-dashoffset:0;stroke-opacity:1" />
    </g>
    <g
       transform="matrix(1.3150799,0,0,1.3229417,20.658285,-316.12629)"
       id="g4804">
      <path
         id="path4806"
         d="m -110.81297,820.88964 c 6.31345,13.8896 -9.84899,18.43528 -9.84899,18.43528"
         style="fill:none;fill-rule:evenodd;stroke:#000000;stroke-width:1.13722086;stroke-linecap:round;stroke-linejoin:miter;stroke-miterlimit:4;stroke-dasharray:none;stroke-opacity:1" />
      <path
         style="fill:none;fill-rule:evenodd;stroke:#000000;stroke-width:1.13722086;stroke-linecap:round;stroke-linejoin:miter;stroke-miterlimit:4;stroke-dasharray:none;stroke-opacity:1"
         d="m -60.117691,819.62696 c -6.31345,13.8896 9.84899,18.43528 9.84899,18.43528"
         id="path4808" />
      <path
         id="path4810"
         d="m -109.29774,827.96071 c 6.44036,4.06599 13.723722,9.25725 24.077781,9.25725 9.922218,-0.31101 15.988096,-4.01838 24.700151,-8.06327 0,0 -1.327661,17.99993 -14.180208,20.5243 -28.459704,5.58976 -34.597724,-21.71828 -34.597724,-21.71828 z"
         style="fill:#ffffff;fill-rule:evenodd;stroke:#000000;stroke-width:0.75814724px;stroke-linecap:butt;stroke-linejoin:miter;stroke-opacity:1" />
    </g>
    <g
       id="g4822"
       transform="matrix(1.3150799,0,0,1.3229417,22.530659,-213.83476)">
      <path
         style="fill:none;fill-rule:evenodd;stroke:#000000;stroke-width:1.13722086;stroke-linecap:round;stroke-linejoin:miter;stroke-miterlimit:4;stroke-dasharray:none;stroke-opacity:1"
         d="m -102.39414,826.82879 c -14.59783,0.93146 -22.06987,16.00562 -22.06987,16.00562"
         id="path4824" />
      <path
         id="path4826"
         d="m -66.907066,825.56611 c 11.610501,-6.62745 17.99624,23.56454 17.99624,23.56454"
         style="fill:none;fill-rule:evenodd;stroke:#000000;stroke-width:1.13722086;stroke-linecap:round;stroke-linejoin:miter;stroke-miterlimit:4;stroke-dasharray:none;stroke-opacity:1" />
      <path
         style="fill:#ffffff;fill-rule:evenodd;stroke:#000000;stroke-width:0.75814724px;stroke-linecap:butt;stroke-linejoin:miter;stroke-opacity:1"
         d="m -117.44499,846.0481 c 12.99688,-29.01254 22.685697,-13.41948 33.039756,-13.41948 9.922218,-0.31101 26.469146,-12.88672 31.761102,11.91385 -11.274121,-3.27538 -17.350586,-5.75664 -30.203134,-3.23228 -28.380494,-8.24135 -23.370954,3.07297 -34.597724,4.73791 z"
         id="path4828" />
    </g>
    <g
       transform="matrix(1.3150799,0,0,1.3229417,24.403028,-133.25279)"
       id="g4830">
      <path
         id="path4832"
         d="m -111.6277,825.47898 c 3.86928,4.71092 -1.97331,8.17676 -1.97331,8.17676"
         style="fill:none;fill-rule:evenodd;stroke:#000000;stroke-width:1.13722086;stroke-linecap:round;stroke-linejoin:miter;stroke-miterlimit:4;stroke-dasharray:none;stroke-opacity:1" />
      <path
         style="fill:none;fill-rule:evenodd;stroke:#000000;stroke-width:1.13722086;stroke-linecap:round;stroke-linejoin:miter;stroke-miterlimit:4;stroke-dasharray:none;stroke-opacity:1"
         d="m -57.401941,824.2163 c -6.041875,4.98088 0.07229,7.90679 0.07229,7.90679"
         id="path4834" />
      <path
         id="path4836"
         d="m -110.11247,829.28291 c 7.25509,-1.82403 14.538452,-1.17131 24.892511,-1.17131 9.922218,-0.0877 16.259671,-0.59222 24.971726,0.69781 0,0 -1.599236,2.10175 -14.451783,2.81295 -28.459704,1.57487 -35.412454,-2.33945 -35.412454,-2.33945 z"
         style="fill:#ffffff;fill-rule:evenodd;stroke:#000000;stroke-width:0.75814724px;stroke-linecap:butt;stroke-linejoin:miter;stroke-opacity:1" />
    </g>
  </g>
  <metadata
     id="metadata4140">
    <rdf:RDF>
      <cc:Work>
        <dc:format>image/svg+xml</dc:format>
        <dc:type
           rdf:resource="http://purl.org/dc/dcmitype/StillImage" />
        <cc:license
           rdf:resource="http://creativecommons.org/publicdomain/zero/1.0/" />
        <dc:publisher>
          <cc:Agent
             rdf:about="http://openclipart.org/">
            <dc:title>Openclipart</dc:title>
          </cc:Agent>
        </dc:publisher>
        <dc:title></dc:title>
      </cc:Work>
      <cc:License
         rdf:about="http://creativecommons.org/publicdomain/zero/1.0/">
        <cc:permits
           rdf:resource="http://creativecommons.org/ns#Reproduction" />
        <cc:permits
           rdf:resource="http://creativecommons.org/ns#Distribution" />
        <cc:permits
           rdf:resource="http://creativecommons.org/ns#DerivativeWorks" />
      </cc:License>
    </rdf:RDF>
  </metadata>
</svg>
